<svg width="395" height="42" viewBox="0 0 395 42" fill="none" xmlns="http://www.w3.org/2000/svg">
<path d="M22.8217 11.44C22.795 9.86667 22.635 8.56 22.3417 7.52C22.0484 6.48 21.5284 5.70666 20.7817 5.2C20.0617 4.66667 19.0084 4.41333 17.6217 4.44H14.2217L14.1817 26.24C14.1817 26.96 14.1684 27.5867 14.1417 28.12C14.1417 28.6267 14.115 29.0533 14.0617 29.4C14.6217 29.3733 15.1684 29.3467 15.7017 29.32C16.2617 29.2933 16.8217 29.2667 17.3817 29.24V31H7.98171V29.68C8.99505 29.6267 9.67505 29.3867 10.0217 28.96C10.395 28.5333 10.595 27.96 10.6217 27.24C10.675 26.4933 10.7017 25.6667 10.7017 24.76L10.7417 4.48L6.62171 4.52C4.94171 4.52 3.75505 5.08 3.06171 6.2C2.36838 7.32 2.02171 9.06667 2.02171 11.44H0.541713L0.781713 3H24.1017L24.3417 11.44H22.8217ZM34.1745 31.64C32.3079 31.64 30.6145 31.2133 29.0945 30.36C27.5745 29.48 26.3612 28.28 25.4545 26.76C24.5745 25.2133 24.1345 23.4533 24.1345 21.48C24.1345 19.3733 24.5745 17.48 25.4545 15.8C26.3345 14.12 27.5345 12.8 29.0545 11.84C30.5745 10.8533 32.2812 10.36 34.1745 10.36C36.0412 10.36 37.7345 10.8133 39.2545 11.72C40.7745 12.6 41.9879 13.8 42.8945 15.32C43.8012 16.84 44.2545 18.5733 44.2545 20.52C44.2545 22.5733 43.8012 24.4533 42.8945 26.16C42.0145 27.84 40.8145 29.1733 39.2945 30.16C37.7745 31.1467 36.0679 31.64 34.1745 31.64ZM34.4945 30.04C35.9079 30.04 37.0279 29.64 37.8545 28.84C38.6812 28.04 39.2679 27 39.6145 25.72C39.9879 24.44 40.1745 23.0933 40.1745 21.68C40.1745 20.48 40.0545 19.3067 39.8145 18.16C39.6012 16.9867 39.2545 15.9333 38.7745 15C38.2945 14.04 37.6679 13.28 36.8945 12.72C36.1479 12.16 35.2412 11.88 34.1745 11.88C32.7879 11.88 31.6545 12.28 30.7745 13.08C29.8945 13.88 29.2412 14.92 28.8145 16.2C28.4145 17.48 28.2145 18.8533 28.2145 20.32C28.2145 21.9733 28.4412 23.5467 28.8945 25.04C29.3479 26.5067 30.0412 27.7067 30.9745 28.64C31.9079 29.5733 33.0812 30.04 34.4945 30.04ZM46.493 41.2V40C47.3196 40 47.893 39.7867 48.213 39.36C48.533 38.96 48.7196 38.3867 48.773 37.64C48.8263 36.92 48.853 36.08 48.853 35.12L48.933 15.8C48.933 15.3733 48.933 14.9467 48.933 14.52C48.9596 14.0933 49.013 13.6533 49.093 13.2C48.613 13.2267 48.133 13.2533 47.653 13.28C47.1996 13.3067 46.733 13.3333 46.253 13.36V11.68C47.4263 11.68 48.3063 11.6267 48.893 11.52C49.5063 11.4133 49.9463 11.28 50.213 11.12C50.5063 10.96 50.7463 10.7867 50.933 10.6H52.133C52.1596 10.8667 52.1863 11.1867 52.213 11.56C52.2396 11.9067 52.2663 12.3067 52.293 12.76C53.093 12.04 54.0396 11.4667 55.133 11.04C56.253 10.5867 57.373 10.36 58.493 10.36C60.0396 10.36 61.4796 10.76 62.813 11.56C64.1463 12.36 65.2263 13.5067 66.053 15C66.8796 16.4667 67.293 18.2267 67.293 20.28C67.293 22.5467 66.813 24.5333 65.853 26.24C64.9196 27.9467 63.6796 29.28 62.133 30.24C60.5863 31.1733 58.9063 31.64 57.093 31.64C56.1596 31.64 55.293 31.52 54.493 31.28C53.7196 31.0667 52.9863 30.7467 52.293 30.32V36.96C52.293 37.4933 52.2796 37.96 52.253 38.36C52.253 38.7867 52.213 39.2267 52.133 39.68C52.5596 39.6533 52.973 39.6267 53.373 39.6C53.7996 39.6 54.2263 39.5867 54.653 39.56V41.2H46.493ZM57.013 30.04C58.293 30.04 59.3863 29.6533 60.293 28.88C61.2263 28.08 61.933 27 62.413 25.64C62.9196 24.2533 63.173 22.68 63.173 20.92C63.173 19.48 62.9596 18.1067 62.533 16.8C62.133 15.4667 61.4796 14.3867 60.573 13.56C59.693 12.7333 58.5196 12.32 57.053 12.32C56.1463 12.32 55.2663 12.5467 54.413 13C53.5863 13.4267 52.893 13.9467 52.333 14.56C52.333 14.6667 52.333 14.8267 52.333 15.04C52.3596 15.2267 52.373 15.5733 52.373 16.08C52.373 16.56 52.373 17.2933 52.373 18.28C52.373 19.24 52.3596 20.5467 52.333 22.2C52.333 23.8533 52.333 25.9467 52.333 28.48C52.9996 28.9867 53.7196 29.3733 54.493 29.64C55.293 29.9067 56.133 30.04 57.013 30.04ZM89.228 31.4L82.068 10.12C81.6146 8.70667 81.2546 7.6 80.988 6.8C80.7213 5.97333 80.5213 5.26666 80.388 4.68C80.0146 4.70667 79.6413 4.72 79.268 4.72C78.8946 4.72 78.5213 4.73333 78.148 4.76V3H87.868V4.32C86.3213 4.4 85.388 4.74667 85.068 5.36C84.7746 5.97333 84.8413 7.08 85.268 8.68C85.7213 10.44 86.2146 12.0267 86.748 13.44C87.2813 14.8533 87.8013 16.3733 88.308 18C88.6813 19.2 89.0546 20.3067 89.428 21.32C89.828 22.3333 90.228 23.4667 90.628 24.72H90.708C90.8413 24.2667 90.9746 23.7867 91.108 23.28C91.268 22.7733 91.428 22.28 91.588 21.8C91.748 21.32 91.8946 20.88 92.028 20.48C92.1613 20.0533 92.268 19.7067 92.348 19.44C93.0946 17.0667 93.828 14.7733 94.548 12.56C95.2946 10.32 95.948 8.36 96.508 6.68C97.068 4.97333 97.4546 3.72 97.668 2.92H98.948C99.188 3.8 99.5346 4.92 99.988 6.28C100.441 7.64 100.921 9.06667 101.428 10.56C101.935 12.0533 102.401 13.4667 102.828 14.8C103.281 16.1333 103.641 17.2 103.908 18C104.281 19.2 104.668 20.3867 105.068 21.56C105.495 22.7333 105.881 23.9467 106.228 25.2H106.348C106.588 24.4267 106.841 23.6 107.108 22.72C107.401 21.84 107.695 20.9467 107.988 20.04C108.681 18.0667 109.241 16.4133 109.668 15.08C110.121 13.7467 110.481 12.64 110.748 11.76C111.041 10.88 111.281 10.12 111.468 9.48C111.681 8.81333 111.895 8.17333 112.108 7.56C112.268 7.10667 112.441 6.62666 112.628 6.12C112.841 5.58667 113.081 5.09333 113.348 4.64C112.815 4.66666 112.281 4.69333 111.748 4.72C111.215 4.72 110.681 4.73333 110.148 4.76V3H118.268V4.32C117.361 4.42666 116.641 4.62667 116.108 4.92C115.601 5.21333 115.148 5.76 114.748 6.56C114.348 7.36 113.868 8.58667 113.308 10.24C112.081 13.8667 110.881 17.44 109.708 20.96C108.561 24.4533 107.361 27.9333 106.108 31.4H104.908L98.828 14.04C98.588 13.3467 98.348 12.6667 98.108 12C97.8946 11.3333 97.668 10.6667 97.428 10C97.2146 10.6667 96.988 11.3333 96.748 12C96.5346 12.6667 96.3213 13.3333 96.108 14L90.388 31.4H89.228ZM117.969 29.8C118.795 29.8 119.369 29.6 119.689 29.2C120.009 28.7733 120.195 28.2 120.249 27.48C120.302 26.7333 120.329 25.88 120.329 24.92V15.8C120.329 15.3733 120.342 14.9733 120.369 14.6C120.395 14.2 120.435 13.7333 120.489 13.2C120.009 13.2267 119.529 13.2533 119.049 13.28C118.595 13.3067 118.129 13.3333 117.649 13.36V11.68C118.822 11.68 119.729 11.6267 120.369 11.52C121.009 11.4133 121.489 11.28 121.809 11.12C122.155 10.96 122.422 10.7867 122.609 10.6H123.769V26.76C123.769 27.2933 123.755 27.7733 123.729 28.2C123.729 28.6 123.689 29.0267 123.609 29.48C124.035 29.4533 124.449 29.44 124.849 29.44C125.275 29.4133 125.702 29.3867 126.129 29.36V31H117.969V29.8ZM121.849 6.64C121.289 6.64 120.795 6.41333 120.369 5.96C119.942 5.50667 119.729 4.94667 119.729 4.28C119.729 3.61333 119.942 3.05333 120.369 2.6C120.822 2.12 121.329 1.88 121.889 1.88C122.502 1.88 123.009 2.12 123.409 2.6C123.835 3.05333 124.049 3.61333 124.049 4.28C124.049 4.94667 123.822 5.50667 123.369 5.96C122.942 6.41333 122.435 6.64 121.849 6.64ZM128.059 31V29.8C128.885 29.8 129.445 29.6 129.739 29.2C130.059 28.7733 130.245 28.2 130.299 27.48C130.352 26.7333 130.379 25.88 130.379 24.92L130.419 6C130.419 5.57333 130.419 5.17333 130.419 4.8C130.445 4.4 130.485 3.93333 130.539 3.4C130.059 3.42667 129.579 3.45333 129.099 3.48C128.645 3.50667 128.179 3.53333 127.699 3.56V1.88C128.872 1.88 129.779 1.82666 130.419 1.72C131.059 1.61333 131.539 1.48 131.859 1.32C132.205 1.16 132.472 0.986665 132.659 0.799998H133.819V19.72H135.419L140.299 14.6C140.752 14.1467 141.165 13.7467 141.539 13.4C141.912 13.0267 142.285 12.72 142.659 12.48L139.939 12.6V11H147.219V12.2C146.312 12.28 145.459 12.5733 144.659 13.08C143.885 13.56 143.165 14.1067 142.499 14.72C141.859 15.3333 141.299 15.8933 140.819 16.4L137.699 19.68C138.232 19.92 138.685 20.2267 139.059 20.6C139.432 20.9733 139.805 21.3867 140.179 21.84L143.019 25.48C143.152 25.64 143.379 25.9467 143.699 26.4C144.045 26.8533 144.445 27.3467 144.899 27.88C145.379 28.4133 145.872 28.8667 146.379 29.24C146.912 29.6133 147.405 29.8 147.859 29.8V31H144.219C143.472 31 142.765 30.6133 142.099 29.84C141.432 29.0667 140.725 28.2 139.979 27.24C139.285 26.28 138.659 25.4133 138.099 24.64C137.565 23.84 137.072 23.1467 136.619 22.56C136.192 21.9733 135.805 21.52 135.459 21.2L133.819 21.28V26.76C133.819 27.2933 133.805 27.7733 133.779 28.2C133.779 28.6 133.739 29.0267 133.659 29.48C134.085 29.4533 134.512 29.44 134.939 29.44C135.365 29.4133 135.792 29.3867 136.219 29.36V31H128.059ZM149.103 29.8C149.93 29.8 150.503 29.6 150.823 29.2C151.143 28.7733 151.33 28.2 151.383 27.48C151.436 26.7333 151.463 25.88 151.463 24.92V15.8C151.463 15.3733 151.476 14.9733 151.503 14.6C151.53 14.2 151.57 13.7333 151.623 13.2C151.143 13.2267 150.663 13.2533 150.183 13.28C149.73 13.3067 149.263 13.3333 148.783 13.36V11.68C149.956 11.68 150.863 11.6267 151.503 11.52C152.143 11.4133 152.623 11.28 152.943 11.12C153.29 10.96 153.556 10.7867 153.743 10.6H154.903V26.76C154.903 27.2933 154.89 27.7733 154.863 28.2C154.863 28.6 154.823 29.0267 154.743 29.48C155.17 29.4533 155.583 29.44 155.983 29.44C156.41 29.4133 156.836 29.3867 157.263 29.36V31H149.103V29.8ZM152.983 6.64C152.423 6.64 151.93 6.41333 151.503 5.96C151.076 5.50667 150.863 4.94667 150.863 4.28C150.863 3.61333 151.076 3.05333 151.503 2.6C151.956 2.12 152.463 1.88 153.023 1.88C153.636 1.88 154.143 2.12 154.543 2.6C154.97 3.05333 155.183 3.61333 155.183 4.28C155.183 4.94667 154.956 5.50667 154.503 5.96C154.076 6.41333 153.57 6.64 152.983 6.64ZM159.193 41.2V40C160.02 40 160.593 39.7867 160.913 39.36C161.233 38.96 161.42 38.3867 161.473 37.64C161.526 36.92 161.553 36.08 161.553 35.12L161.633 15.8C161.633 15.3733 161.633 14.9467 161.633 14.52C161.66 14.0933 161.713 13.6533 161.793 13.2C161.313 13.2267 160.833 13.2533 160.353 13.28C159.9 13.3067 159.433 13.3333 158.953 13.36V11.68C160.126 11.68 161.006 11.6267 161.593 11.52C162.206 11.4133 162.646 11.28 162.913 11.12C163.206 10.96 163.446 10.7867 163.633 10.6H164.833C164.86 10.8667 164.886 11.1867 164.913 11.56C164.94 11.9067 164.966 12.3067 164.993 12.76C165.793 12.04 166.74 11.4667 167.833 11.04C168.953 10.5867 170.073 10.36 171.193 10.36C172.74 10.36 174.18 10.76 175.513 11.56C176.846 12.36 177.926 13.5067 178.753 15C179.58 16.4667 179.993 18.2267 179.993 20.28C179.993 22.5467 179.513 24.5333 178.553 26.24C177.62 27.9467 176.38 29.28 174.833 30.24C173.286 31.1733 171.606 31.64 169.793 31.64C168.86 31.64 167.993 31.52 167.193 31.28C166.42 31.0667 165.686 30.7467 164.993 30.32V36.96C164.993 37.4933 164.98 37.96 164.953 38.36C164.953 38.7867 164.913 39.2267 164.833 39.68C165.26 39.6533 165.673 39.6267 166.073 39.6C166.5 39.6 166.926 39.5867 167.353 39.56V41.2H159.193ZM169.713 30.04C170.993 30.04 172.086 29.6533 172.993 28.88C173.926 28.08 174.633 27 175.113 25.64C175.62 24.2533 175.873 22.68 175.873 20.92C175.873 19.48 175.66 18.1067 175.233 16.8C174.833 15.4667 174.18 14.3867 173.273 13.56C172.393 12.7333 171.22 12.32 169.753 12.32C168.846 12.32 167.966 12.5467 167.113 13C166.286 13.4267 165.593 13.9467 165.033 14.56C165.033 14.6667 165.033 14.8267 165.033 15.04C165.06 15.2267 165.073 15.5733 165.073 16.08C165.073 16.56 165.073 17.2933 165.073 18.28C165.073 19.24 165.06 20.5467 165.033 22.2C165.033 23.8533 165.033 25.9467 165.033 28.48C165.7 28.9867 166.42 29.3733 167.193 29.64C167.993 29.9067 168.833 30.04 169.713 30.04ZM192.3 31.64C190.46 31.64 188.794 31.2133 187.3 30.36C185.834 29.48 184.674 28.2533 183.82 26.68C182.967 25.08 182.54 23.2 182.54 21.04C182.54 19.1733 182.954 17.4267 183.78 15.8C184.634 14.1733 185.82 12.8667 187.34 11.88C188.86 10.8667 190.62 10.36 192.62 10.36C193.74 10.36 194.78 10.5467 195.74 10.92C196.727 11.2667 197.594 11.8133 198.34 12.56C199.087 13.28 199.674 14.2 200.1 15.32C200.527 16.4133 200.74 17.7067 200.74 19.2L186.66 19.44C186.66 21.4667 186.874 23.2533 187.3 24.8C187.754 26.32 188.474 27.5067 189.46 28.36C190.447 29.1867 191.714 29.6 193.26 29.6C194.087 29.6 194.927 29.4533 195.78 29.16C196.66 28.8667 197.474 28.4667 198.22 27.96C198.967 27.4533 199.567 26.8933 200.02 26.28L200.98 27.08C200.26 28.2 199.394 29.0933 198.38 29.76C197.367 30.4267 196.327 30.9067 195.26 31.2C194.194 31.4933 193.207 31.64 192.3 31.64ZM186.78 17.76H196.98C196.98 16.8 196.834 15.88 196.54 15C196.274 14.0933 195.82 13.36 195.18 12.8C194.54 12.2133 193.7 11.92 192.66 11.92C191.114 11.92 189.82 12.3867 188.78 13.32C187.767 14.2267 187.1 15.7067 186.78 17.76ZM211.865 31.64C210.238 31.64 208.771 31.24 207.465 30.44C206.158 29.6133 205.118 28.44 204.345 26.92C203.598 25.4 203.225 23.6133 203.225 21.56C203.225 19.3733 203.665 17.44 204.545 15.76C205.425 14.08 206.638 12.76 208.185 11.8C209.758 10.84 211.531 10.36 213.505 10.36C214.385 10.36 215.251 10.48 216.105 10.72C216.985 10.9333 217.678 11.1867 218.185 11.48V6C218.185 5.57333 218.185 5.17333 218.185 4.8C218.211 4.4 218.251 3.93333 218.305 3.4C217.825 3.42667 217.345 3.45333 216.865 3.48C216.411 3.50667 215.945 3.53333 215.465 3.56V1.88C216.638 1.88 217.545 1.82666 218.185 1.72C218.825 1.61333 219.305 1.48 219.625 1.32C219.971 1.16 220.238 0.986665 220.425 0.799998H221.585V26.76C221.585 27.1867 221.571 27.6133 221.545 28.04C221.518 28.4667 221.478 28.9467 221.425 29.48C221.905 29.4533 222.371 29.4267 222.825 29.4C223.305 29.3733 223.785 29.3467 224.265 29.32V31H218.545C218.465 30.6 218.398 30.24 218.345 29.92C218.318 29.5733 218.291 29.24 218.265 28.92C217.518 29.7467 216.598 30.4133 215.505 30.92C214.411 31.4 213.198 31.64 211.865 31.64ZM213.305 29.68C214.185 29.68 215.065 29.4267 215.945 28.92C216.851 28.4133 217.598 27.7867 218.185 27.04C218.158 26.72 218.145 26.3867 218.145 26.04C218.145 25.6667 218.145 25.2667 218.145 24.84L218.185 13.32C217.545 12.84 216.838 12.4933 216.065 12.28C215.318 12.04 214.545 11.92 213.745 11.92C212.411 11.92 211.251 12.3067 210.265 13.08C209.278 13.8533 208.531 14.9333 208.025 16.32C207.518 17.7067 207.291 19.3333 207.345 21.2C207.398 22.8267 207.651 24.28 208.105 25.56C208.585 26.84 209.251 27.8533 210.105 28.6C210.985 29.32 212.051 29.68 213.305 29.68ZM226.411 29.8C227.237 29.8 227.811 29.6 228.131 29.2C228.451 28.7733 228.637 28.2 228.691 27.48C228.744 26.7333 228.771 25.88 228.771 24.92V15.8C228.771 15.3733 228.784 14.9733 228.811 14.6C228.837 14.2 228.877 13.7333 228.931 13.2C228.451 13.2267 227.971 13.2533 227.491 13.28C227.037 13.3067 226.571 13.3333 226.091 13.36V11.68C227.264 11.68 228.171 11.6267 228.811 11.52C229.451 11.4133 229.931 11.28 230.251 11.12C230.597 10.96 230.864 10.7867 231.051 10.6H232.211V26.76C232.211 27.2933 232.197 27.7733 232.171 28.2C232.171 28.6 232.131 29.0267 232.051 29.48C232.477 29.4533 232.891 29.44 233.291 29.44C233.717 29.4133 234.144 29.3867 234.571 29.36V31H226.411V29.8ZM230.291 6.64C229.731 6.64 229.237 6.41333 228.811 5.96C228.384 5.50667 228.171 4.94667 228.171 4.28C228.171 3.61333 228.384 3.05333 228.811 2.6C229.264 2.12 229.771 1.88 230.331 1.88C230.944 1.88 231.451 2.12 231.851 2.6C232.277 3.05333 232.491 3.61333 232.491 4.28C232.491 4.94667 232.264 5.50667 231.811 5.96C231.384 6.41333 230.877 6.64 230.291 6.64ZM249.021 31C248.941 30.5467 248.887 30.1467 248.861 29.8C248.834 29.4533 248.794 29.0933 248.741 28.72C247.834 29.6267 246.847 30.3467 245.781 30.88C244.741 31.3867 243.634 31.64 242.461 31.64C240.434 31.64 238.927 31.1867 237.941 30.28C236.954 29.3467 236.461 28.2133 236.461 26.88C236.461 25.6533 236.834 24.6 237.581 23.72C238.354 22.8133 239.341 22.08 240.541 21.52C241.767 20.9333 243.087 20.5067 244.501 20.24C245.941 19.9467 247.327 19.8133 248.661 19.84V17.36C248.661 16.4267 248.581 15.5467 248.421 14.72C248.261 13.8933 247.914 13.2133 247.381 12.68C246.847 12.1467 245.994 11.8667 244.821 11.84C244.047 11.8133 243.247 11.96 242.421 12.28C241.621 12.6 241.034 13.1467 240.661 13.92C240.874 14.1333 241.007 14.3867 241.061 14.68C241.141 14.9467 241.181 15.2 241.181 15.44C241.181 15.76 241.047 16.1333 240.781 16.56C240.514 16.96 240.047 17.1467 239.381 17.12C238.821 17.12 238.394 16.9333 238.101 16.56C237.807 16.16 237.661 15.6933 237.661 15.16C237.661 14.2533 237.994 13.44 238.661 12.72C239.354 12 240.301 11.4267 241.501 11C242.701 10.5733 244.061 10.36 245.581 10.36C247.821 10.36 249.474 10.96 250.541 12.16C251.607 13.3333 252.127 15.2 252.101 17.76C252.101 18.7467 252.101 19.7467 252.101 20.76C252.101 21.7467 252.087 22.7467 252.061 23.76C252.061 24.7467 252.061 25.7467 252.061 26.76C252.061 27.1867 252.047 27.6133 252.021 28.04C251.994 28.4667 251.954 28.9467 251.901 29.48C252.381 29.4533 252.847 29.4267 253.301 29.4C253.781 29.3733 254.261 29.3467 254.741 29.32V31H249.021ZM248.661 21.2C247.754 21.2267 246.794 21.3467 245.781 21.56C244.794 21.7467 243.874 22.04 243.021 22.44C242.194 22.84 241.514 23.3733 240.981 24.04C240.474 24.68 240.234 25.4667 240.261 26.4C240.314 27.3867 240.634 28.1333 241.221 28.64C241.834 29.12 242.554 29.36 243.381 29.36C244.474 29.36 245.421 29.16 246.221 28.76C247.047 28.3333 247.861 27.7467 248.661 27C248.634 26.7067 248.621 26.3867 248.621 26.04C248.621 25.6933 248.621 25.3333 248.621 24.96C248.621 24.8267 248.621 24.4 248.621 23.68C248.647 22.96 248.661 22.1333 248.661 21.2ZM278.554 31C278.474 30.5467 278.42 30.1467 278.394 29.8C278.367 29.4533 278.327 29.0933 278.274 28.72C277.367 29.6267 276.38 30.3467 275.314 30.88C274.274 31.3867 273.167 31.64 271.994 31.64C269.967 31.64 268.46 31.1867 267.474 30.28C266.487 29.3467 265.994 28.2133 265.994 26.88C265.994 25.6533 266.367 24.6 267.114 23.72C267.887 22.8133 268.874 22.08 270.074 21.52C271.3 20.9333 272.62 20.5067 274.034 20.24C275.474 19.9467 276.86 19.8133 278.194 19.84V17.36C278.194 16.4267 278.114 15.5467 277.954 14.72C277.794 13.8933 277.447 13.2133 276.914 12.68C276.38 12.1467 275.527 11.8667 274.354 11.84C273.58 11.8133 272.78 11.96 271.954 12.28C271.154 12.6 270.567 13.1467 270.194 13.92C270.407 14.1333 270.54 14.3867 270.594 14.68C270.674 14.9467 270.714 15.2 270.714 15.44C270.714 15.76 270.58 16.1333 270.314 16.56C270.047 16.96 269.58 17.1467 268.914 17.12C268.354 17.12 267.927 16.9333 267.634 16.56C267.34 16.16 267.194 15.6933 267.194 15.16C267.194 14.2533 267.527 13.44 268.194 12.72C268.887 12 269.834 11.4267 271.034 11C272.234 10.5733 273.594 10.36 275.114 10.36C277.354 10.36 279.007 10.96 280.074 12.16C281.14 13.3333 281.66 15.2 281.634 17.76C281.634 18.7467 281.634 19.7467 281.634 20.76C281.634 21.7467 281.62 22.7467 281.594 23.76C281.594 24.7467 281.594 25.7467 281.594 26.76C281.594 27.1867 281.58 27.6133 281.554 28.04C281.527 28.4667 281.487 28.9467 281.434 29.48C281.914 29.4533 282.38 29.4267 282.834 29.4C283.314 29.3733 283.794 29.3467 284.274 29.32V31H278.554ZM278.194 21.2C277.287 21.2267 276.327 21.3467 275.314 21.56C274.327 21.7467 273.407 22.04 272.554 22.44C271.727 22.84 271.047 23.3733 270.514 24.04C270.007 24.68 269.767 25.4667 269.794 26.4C269.847 27.3867 270.167 28.1333 270.754 28.64C271.367 29.12 272.087 29.36 272.914 29.36C274.007 29.36 274.954 29.16 275.754 28.76C276.58 28.3333 277.394 27.7467 278.194 27C278.167 26.7067 278.154 26.3867 278.154 26.04C278.154 25.6933 278.154 25.3333 278.154 24.96C278.154 24.8267 278.154 24.4 278.154 23.68C278.18 22.96 278.194 22.1333 278.194 21.2ZM286.219 29.8C287.045 29.8 287.619 29.6 287.939 29.2C288.259 28.7733 288.445 28.2 288.499 27.48C288.552 26.7333 288.579 25.88 288.579 24.92V15.8C288.579 15.3733 288.579 14.9467 288.579 14.52C288.605 14.0933 288.659 13.6533 288.739 13.2C288.259 13.2267 287.779 13.2533 287.299 13.28C286.845 13.28 286.379 13.2933 285.899 13.32V11.68H287.139C288.285 11.68 289.072 11.5733 289.499 11.36C289.952 11.12 290.325 10.8667 290.619 10.6H291.779C291.832 11.0267 291.872 11.56 291.899 12.2C291.925 12.8133 291.952 13.6 291.979 14.56C292.379 13.8933 292.925 13.24 293.619 12.6C294.312 11.96 295.085 11.4267 295.939 11C296.819 10.5733 297.739 10.36 298.699 10.36C299.445 10.36 300.099 10.56 300.659 10.96C301.219 11.36 301.499 12 301.499 12.88C301.499 13.0933 301.432 13.36 301.299 13.68C301.165 13.9733 300.952 14.24 300.659 14.48C300.365 14.6933 299.979 14.8 299.499 14.8C298.912 14.7733 298.445 14.5467 298.099 14.12C297.752 13.6667 297.619 13.1467 297.699 12.56C297.032 12.5333 296.339 12.7067 295.619 13.08C294.925 13.4533 294.272 13.9733 293.659 14.64C293.045 15.28 292.499 16.04 292.019 16.92L292.059 26.76C292.059 27.2933 292.045 27.7733 292.019 28.2C292.019 28.6 291.979 29.0267 291.899 29.48C292.325 29.4533 292.739 29.44 293.139 29.44C293.565 29.4133 293.992 29.3867 294.419 29.36V31H286.219V29.8ZM310.517 31.64C309.903 31.64 309.277 31.5467 308.637 31.36C307.997 31.2 307.397 30.8667 306.837 30.36C306.303 29.8533 305.877 29.12 305.557 28.16C305.237 27.1733 305.077 25.88 305.077 24.28L305.157 12.68L302.077 12.72V11C302.77 10.9733 303.477 10.72 304.197 10.24C304.917 9.73333 305.557 9.05333 306.117 8.2C306.703 7.34666 307.103 6.41333 307.317 5.4H308.677V11H315.397V12.56L308.677 12.64L308.597 23.76C308.597 24.96 308.69 25.9867 308.877 26.84C309.09 27.6667 309.423 28.2933 309.877 28.72C310.33 29.1467 310.917 29.36 311.637 29.36C312.383 29.36 313.077 29.1467 313.717 28.72C314.383 28.2933 314.97 27.7067 315.477 26.96L316.557 27.84C315.97 28.72 315.383 29.4133 314.797 29.92C314.237 30.4267 313.69 30.8 313.157 31.04C312.623 31.3067 312.13 31.4667 311.677 31.52C311.223 31.6 310.837 31.64 310.517 31.64ZM317.665 29.8C318.492 29.8 319.065 29.6 319.385 29.2C319.705 28.7733 319.892 28.2 319.945 27.48C319.999 26.7333 320.025 25.88 320.025 24.92V15.8C320.025 15.3733 320.039 14.9733 320.065 14.6C320.092 14.2 320.132 13.7333 320.185 13.2C319.705 13.2267 319.225 13.2533 318.745 13.28C318.292 13.3067 317.825 13.3333 317.345 13.36V11.68C318.519 11.68 319.425 11.6267 320.065 11.52C320.705 11.4133 321.185 11.28 321.505 11.12C321.852 10.96 322.119 10.7867 322.305 10.6H323.465V26.76C323.465 27.2933 323.452 27.7733 323.425 28.2C323.425 28.6 323.385 29.0267 323.305 29.48C323.732 29.4533 324.145 29.44 324.545 29.44C324.972 29.4133 325.399 29.3867 325.825 29.36V31H317.665V29.8ZM321.545 6.64C320.985 6.64 320.492 6.41333 320.065 5.96C319.639 5.50667 319.425 4.94667 319.425 4.28C319.425 3.61333 319.639 3.05333 320.065 2.6C320.519 2.12 321.025 1.88 321.585 1.88C322.199 1.88 322.705 2.12 323.105 2.6C323.532 3.05333 323.745 3.61333 323.745 4.28C323.745 4.94667 323.519 5.50667 323.065 5.96C322.639 6.41333 322.132 6.64 321.545 6.64ZM337.875 31.64C336.089 31.64 334.435 31.24 332.915 30.44C331.422 29.6133 330.222 28.44 329.315 26.92C328.435 25.3733 327.995 23.52 327.995 21.36C327.995 19.9733 328.249 18.6267 328.755 17.32C329.262 16.0133 329.969 14.84 330.875 13.8C331.809 12.7333 332.915 11.8933 334.195 11.28C335.475 10.6667 336.889 10.36 338.435 10.36C339.929 10.36 341.222 10.5867 342.315 11.04C343.435 11.4933 344.302 12.0933 344.915 12.84C345.529 13.5867 345.835 14.4 345.835 15.28C345.835 15.8667 345.675 16.3733 345.355 16.8C345.035 17.2 344.569 17.4 343.955 17.4C343.289 17.4267 342.809 17.2267 342.515 16.8C342.249 16.3467 342.115 15.9467 342.115 15.6C342.115 15.3333 342.155 15.0667 342.235 14.8C342.315 14.5067 342.475 14.24 342.715 14C342.502 13.36 342.129 12.8933 341.595 12.6C341.062 12.28 340.502 12.08 339.915 12C339.355 11.8933 338.889 11.84 338.515 11.84C336.702 11.84 335.169 12.5733 333.915 14.04C332.689 15.48 332.075 17.5867 332.075 20.36C332.075 22.1467 332.355 23.7333 332.915 25.12C333.502 26.5067 334.315 27.6 335.355 28.4C336.395 29.1733 337.595 29.56 338.955 29.56C340.209 29.56 341.409 29.2267 342.555 28.56C343.702 27.8933 344.595 27.08 345.235 26.12L346.275 26.92C345.582 28.04 344.742 28.9467 343.755 29.64C342.795 30.3333 341.795 30.84 340.755 31.16C339.742 31.48 338.782 31.64 337.875 31.64ZM348.204 29.8C349.031 29.8 349.604 29.6 349.924 29.2C350.244 28.7733 350.431 28.2 350.484 27.48C350.538 26.7333 350.564 25.88 350.564 24.92V6C350.564 5.57333 350.564 5.17333 350.564 4.8C350.591 4.4 350.631 3.93333 350.684 3.4C350.204 3.42667 349.724 3.45333 349.244 3.48C348.791 3.50667 348.324 3.53333 347.844 3.56V1.88C349.018 1.88 349.924 1.82666 350.564 1.72C351.231 1.61333 351.724 1.48 352.044 1.32C352.391 1.16 352.658 0.986665 352.844 0.799998H354.004L354.044 26.76C354.044 27.2933 354.031 27.7733 354.004 28.2C353.978 28.6 353.924 29.0267 353.844 29.48C354.271 29.4533 354.684 29.44 355.084 29.44C355.511 29.4133 355.938 29.3867 356.364 29.36V31H348.204V29.8ZM368.383 31.64C366.543 31.64 364.876 31.2133 363.383 30.36C361.916 29.48 360.756 28.2533 359.903 26.68C359.05 25.08 358.623 23.2 358.623 21.04C358.623 19.1733 359.036 17.4267 359.863 15.8C360.716 14.1733 361.903 12.8667 363.423 11.88C364.943 10.8667 366.703 10.36 368.703 10.36C369.823 10.36 370.863 10.5467 371.823 10.92C372.81 11.2667 373.676 11.8133 374.423 12.56C375.17 13.28 375.756 14.2 376.183 15.32C376.61 16.4133 376.823 17.7067 376.823 19.2L362.743 19.44C362.743 21.4667 362.956 23.2533 363.383 24.8C363.836 26.32 364.556 27.5067 365.543 28.36C366.53 29.1867 367.796 29.6 369.343 29.6C370.17 29.6 371.01 29.4533 371.863 29.16C372.743 28.8667 373.556 28.4667 374.303 27.96C375.05 27.4533 375.65 26.8933 376.103 26.28L377.063 27.08C376.343 28.2 375.476 29.0933 374.463 29.76C373.45 30.4267 372.41 30.9067 371.343 31.2C370.276 31.4933 369.29 31.64 368.383 31.64ZM362.863 17.76H373.063C373.063 16.8 372.916 15.88 372.623 15C372.356 14.0933 371.903 13.36 371.263 12.8C370.623 12.2133 369.783 11.92 368.743 11.92C367.196 11.92 365.903 12.3867 364.863 13.32C363.85 14.2267 363.183 15.7067 362.863 17.76ZM387.783 31.64C386.449 31.64 385.263 31.4533 384.223 31.08C383.183 30.7333 382.329 30.3333 381.663 29.88L381.823 31.28H380.143L379.903 24.4H381.143C381.196 25.4933 381.503 26.48 382.063 27.36C382.623 28.2133 383.343 28.88 384.223 29.36C385.103 29.84 386.049 30.08 387.063 30.08C387.756 30.08 388.436 29.9733 389.103 29.76C389.769 29.52 390.329 29.1733 390.783 28.72C391.236 28.24 391.463 27.64 391.463 26.92C391.463 26.1733 391.236 25.56 390.783 25.08C390.356 24.5733 389.783 24.1333 389.063 23.76C388.343 23.3867 387.569 23.04 386.743 22.72C385.943 22.4 385.143 22.0667 384.343 21.72C383.543 21.3733 382.796 20.96 382.103 20.48C381.436 20 380.903 19.4133 380.503 18.72C380.103 18.0267 379.903 17.1733 379.903 16.16C379.903 15.6 380.009 14.9867 380.223 14.32C380.436 13.6533 380.796 13.0267 381.303 12.44C381.809 11.8267 382.503 11.3333 383.383 10.96C384.263 10.56 385.383 10.36 386.743 10.36C387.463 10.36 388.263 10.48 389.143 10.72C390.023 10.96 390.876 11.4133 391.703 12.08L391.623 10.56H393.303V17.56H392.023C391.969 16.6267 391.756 15.7333 391.383 14.88C391.009 14 390.463 13.28 389.743 12.72C389.023 12.1333 388.089 11.84 386.943 11.84C385.716 11.84 384.756 12.1467 384.063 12.76C383.369 13.3733 383.023 14.08 383.023 14.88C383.023 15.7067 383.276 16.4 383.783 16.96C384.316 17.4933 384.996 17.96 385.823 18.36C386.649 18.76 387.529 19.1467 388.463 19.52C389.476 19.9467 390.463 20.4133 391.423 20.92C392.383 21.4267 393.169 22.0667 393.783 22.84C394.396 23.5867 394.703 24.56 394.703 25.76C394.703 27.0933 394.356 28.2 393.663 29.08C392.996 29.96 392.129 30.6 391.063 31C390.023 31.4267 388.929 31.64 387.783 31.64Z" fill="#05090D"/>
</svg>
